<?xml version="1.0" encoding="utf-8"?>
<!-- Generator: Adobe Illustrator 22.1.0, SVG Export Plug-In . SVG Version: 6.00 Build 0)  -->
<svg version="1.1" id="Layer_1" xmlns="http://www.w3.org/2000/svg" xmlns:xlink="http://www.w3.org/1999/xlink" x="0px" y="0px"
	 viewBox="0 0 246.2 113.8" style="enable-background:new 0 0 246.2 113.8;" xml:space="preserve">
<style type="text/css">
	.st0{fill:#FFFFFF;}
</style>
<g>
	<g>
		<path class="st0" d="M85.3,56.1c2.7,0,5.4-1.2,7-3.8c1.5-2.5,0.3-3.8-2.4-3.8h-7.6l-4.6,7.6H85.3z"/>
	</g>
	<g>
		<path class="st0" d="M52.5,87.4c0-2-0.9-3.4-2.5-3.4s-2.5,1.4-2.5,3.4c0,2,0.9,3.4,2.5,3.4S52.5,89.4,52.5,87.4z"/>
	</g>
	<g>
		<path class="st0" d="M39,85.5c0-0.9-0.6-1.5-1.5-1.5h-2.1v3h2.1C38.3,87,39,86.4,39,85.5z"/>
	</g>
	<g>
		<path class="st0" d="M59.3,33.2h-7.2l-6.2,10.2h7.2c3,0,6.4-2,8.3-5.1C63.3,35.2,62.3,33.2,59.3,33.2z"/>
	</g>
	<g>
		<path class="st0" d="M235.1,62.8V27.6c0-5.4-4.4-9.8-9.8-9.8H24.6c-5.4,0-9.8,4.4-9.8,9.8v35.3c0,5.4,4.4,9.8,9.8,9.8h200.7
			C230.7,72.6,235.1,68.2,235.1,62.8z M102.2,67.2l13.2-33.8c-0.1,0.1-0.1,0.2-0.2,0.4c-3.5,5.8-9.5,9.7-16.9,10.8
			c6.6,0.8,9,4.6,5.1,11.2C99.4,62.3,92,67.2,83.2,67.2H57.4l16.8-28C68.6,48,59.5,54,49.9,54H39.6l-7.5,12.5H18.5l26.2-43.6h23.9
			c9.6,0,11.6,5.9,6.6,14.8l8.5-14.2h24.8c6.2,0,9,2.5,8.3,6.4l2.3-6h24.1l-19,43.4H102.2z M151.8,67.2l6.1-14.1h-0.7l-10.8,14.1
			h-19.7l33.1-43.4h30.7l-19.1,43.4H151.8z M174.1,67.2l33.2-43.4h24l-35.2,43.4H174.1z"/>
	</g>
	<g>
		<path class="st0" d="M119,87.4c0-2.6-1.2-3.2-2.6-3.2H115v6.3h1.4C117.8,90.5,119,89.9,119,87.4z"/>
	</g>
	<g>
		<path class="st0" d="M135.5,85.4c0-0.7-0.5-0.9-1.2-0.9h-1.9v1.9h1.9C135,86.4,135.5,86.1,135.5,85.4z"/>
	</g>
	<g>
		<polygon class="st0" points="160.2,93.3 162,91 157.7,91 156.8,93.3 		"/>
	</g>
	<g>
		<path class="st0" d="M204.2,87.8c1.6-2.6,0.7-3.2-0.7-3.2h-1.3l-3.8,6.4h1.3C201.1,91,202.6,90.4,204.2,87.8z"/>
	</g>
	<g>
		<polygon class="st0" points="165.8,91.1 164.8,93.4 168.2,93.4 170.1,91.1 		"/>
	</g>
	<g>
		<path class="st0" d="M94.8,85.2c0-0.8-0.6-1.2-1.4-1.2h-2.4v2.3h2.4C94.2,86.3,94.8,85.9,94.8,85.2z"/>
	</g>
	<g>
		<path class="st0" d="M93.3,40.9c2.3,0,4.6-0.9,6-3.2c1.4-2.3,0.1-3.2-2.2-3.2h-6.4l-3.9,6.4H93.3z"/>
	</g>
	<g>
		<path class="st0" d="M246.2,0H0v113.8h246.2V0z M165.2,90.2h6.8l-3.4,4.1h-5.2L165.2,90.2z M160.7,94.2h-5.2l1.6-4.1h6.8
			L160.7,94.2z M206,81.3c3.8,0,4.9,2.1,2.2,6.5c-2.6,4.4-6.2,6.5-10,6.5h-5.8l7.8-12.9H206z M191.3,81.3l-1.5,7.8h0.1l0.9-1.6
			l3.7-6.2h3.9l-7.8,12.9h-5.4l1.5-7.8h-0.1l-0.9,1.6l-3.7,6.2h-3.9l7.8-12.9H191.3z M184.1,81.3l-7.8,12.9h-4l7.8-12.9H184.1z
			 M179.1,81.3l-5.8,7.2h-3.7l5.5-7.2H179.1z M172.4,81.3l-3.2,7.2h-3.3l1-2.3h-0.1l-1.8,2.3h-3.3l5.5-7.2H172.4z M164.5,81.3
			l-3.2,7.2h-3.6l2.8-7.2H164.5z M116.9,81c3.8,0,6.2,2.1,6.2,6.4c0,4.3-2.4,6.4-6.2,6.4H111V81H116.9z M109.3,81v3.2H104v1.6h5.1
			v2.8H104v1.8h5.4v3.2H100V81H109.3z M94,81c3.3,0,4.7,1.6,4.7,3.8c0,2.1-1.4,3.5-3.7,3.7c1,1.5,2.6,3.7,3.9,5.3H94
			c-1-1.4-1.9-3-2.9-4.6v4.6h-4V81H94z M85.4,81v3.2h-5.3v1.6h5.1v2.8h-5.1v1.8h5.4v3.2h-9.4V81H85.4z M60.3,81l1.3,8.1h0.1l1.3-8.1
			h5.1l1.3,8.1h0.1l1.4-8.1h4l-2.7,12.8h-5.2l-1.4-8h-0.1l-1.3,8H59L56.3,81H60.3z M24.6,74.4c-6.4,0-11.6-5.2-11.6-11.6V27.6
			C13,21.2,18.2,16,24.6,16h200.7c6.4,0,11.6,5.2,11.6,11.6v35.3c0,6.4-5.2,11.6-11.6,11.6H24.6z M31.3,93.8V81h7
			c2.9,0,4.5,1.8,4.5,4.6s-1.6,4.6-4.5,4.6h-3v3.7H31.3z M43.6,87.4c0-3.9,2.3-6.6,6.4-6.6c4,0,6.4,2.7,6.4,6.6
			c0,3.9-2.3,6.6-6.4,6.6C45.9,94,43.6,91.3,43.6,87.4z M128.4,94.1V81.3h7.2c2.4,0,3.8,1.2,3.8,3c0,1.7-1.1,2.8-3,3.1
			c2.1,0.2,3.4,1.3,3.4,3.3c0,1.9-1.3,3.4-3.9,3.4H128.4z M143.8,94.3l1.6-3.9l-5.1-9.2h4.3l2.4,5.1l2.1-5.1h0.6h3.7l-5.8,13.1
			H143.8z"/>
	</g>
	<g>
		<path class="st0" d="M136,89.7c0-0.7-0.6-1.1-1.4-1.1h-2.2v2.2h2.2C135.4,90.8,136,90.5,136,89.7z"/>
	</g>
	<g>
		<polygon class="st0" points="147.8,86.5 147.2,86.5 147.1,86.3 145.4,90.4 145.9,91.3 		"/>
	</g>
	<g>
		<polygon class="st0" points="148.5,86.5 149.8,81.3 147.8,86.5 		"/>
	</g>
	<g>
		<path class="st0" d="M75.2,37.6l-1,1.6c0.2-0.3,0.3-0.5,0.5-0.8C74.9,38.1,75.1,37.8,75.2,37.6z"/>
	</g>
	<g>
		<path class="st0" d="M115.4,33.4c0.7-1.3,1.2-2.5,1.4-3.6L115.4,33.4z"/>
	</g>
</g>
</svg>
